toolbar-icons.ufo
<glyph name="A" format="2">
	<unicode hex="0041"/>
	<outline>
		<contour>
			<point x="140" y="0" type="line"/>
			<point x="318" y="-1" type="line"/>
			<point x="320" y="80" type="line"/>
			<point x="365" y="180" type="line"/>
			<point x="385" y="300" type="line"/>
			<point x="385" y="410" type="line"/>
			<point x="375" y="420" type="line"/>
			<point x="355" y="420" type="line"/>
			<point x="345" y="410" type="line"/>
			<point x="340" y="335" type="line"/>
			<point x="325" y="270" type="line"/>
			<point x="315" y="275" type="line"/>
			<point x="320" y="370" type="line"/>
			<point x="315" y="470" type="line"/>
			<point x="305" y="480" type="line"/>
			<point x="280" y="480" type="line"/>
			<point x="270" y="470" type="line"/>
			<point x="270" y="390" type="line"/>
			<point x="260" y="290" type="line"/>
			<point x="250" y="290" type="line"/>
			<point x="240" y="485" type="line"/>
			<point x="225" y="500" type="line"/>
			<point x="205" y="500" type="line"/>
			<point x="190" y="485" type="line"/>
			<point x="195" y="285" type="line"/>
			<point x="185" y="285" type="line"/>
			<point x="165" y="450" type="line"/>
			<point x="155" y="460" type="line"/>
			<point x="130" y="460" type="line"/>
			<point x="120" y="450" type="line"/>
			<point x="125" y="280" type="line"/>
			<point x="120" y="225" type="line"/>
			<point x="110" y="215" type="line"/>
			<point x="77" y="239" type="line"/>
			<point x="45" y="307" type="line"/>
			<point x="25" y="317" type="line"/>
			<point x="0" y="305" type="line"/>
			<point x="30" y="170" type="line"/>
			<point x="140" y="60" type="line"/>
		</contour>
	</outline>
</glyph>
<glyph name="B" format="2">
	<unicode hex="0042"/>
	<outline>
		<contour>
			<point x="30" y="0" type="line"/>
			<point x="170" y="0" type="line"/>
			<point x="170" y="50" type="line"/>
			<point x="30" y="50" type="line"/>
		</contour>
		<contour>
			<point x="50" y="100" type="line"/>
			<point x="155" y="100" type="line"/>
			<point x="155" y="150" type="line"/>
			<point x="200" y="200" type="line"/>
			<point x="71" y="500" type="line"/>
			<point x="50" y="480" type="line"/>
		</contour>
		<contour>
			<point x="30" y="50" type="curve" smooth="yes"/>
			<point x="170" y="50" type="line" smooth="yes"/>
			<point x="185" y="50"/>
			<point x="200" y="55"/>
			<point x="200" y="75" type="curve" smooth="yes"/>
			<point x="200" y="95"/>
			<point x="185" y="100"/>
			<point x="170" y="100" type="curve" smooth="yes"/>
			<point x="30" y="100" type="line" smooth="yes"/>
			<point x="15" y="100"/>
			<point x="0" y="95"/>
			<point x="0" y="75" type="curve" smooth="yes"/>
			<point x="0" y="55"/>
			<point x="15" y="50"/>
		</contour>
	</outline>
</glyph>
<glyph name="C" format="2">
	<unicode hex="0043"/>
	<outline>
		<contour>
			<point x="0" y="500" type="line"/>
			<point x="300" y="500" type="line"/>
			<point x="300" y="200" type="line"/>
			<point x="0" y="200" type="line"/>
		</contour>
		<contour>
			<point x="200" y="360" type="line"/>
			<point x="380" y="360" type="line"/>
			<point x="380" y="80" type="line"/>
			<point x="200" y="80" type="line"/>
		</contour>
	</outline>
</glyph>
<glyph name="D" format="2">
	<unicode hex="0044"/>
	<outline>
		<contour>
			<point x="348" y="326" type="curve" smooth="yes"/>
			<point x="348" y="422"/>
			<point x="270" y="500"/>
			<point x="174" y="500" type="curve" smooth="yes"/>
			<point x="78" y="500"/>
			<point x="0" y="422"/>
			<point x="0" y="326" type="curve" smooth="yes"/>
			<point x="0" y="230"/>
			<point x="78" y="152"/>
			<point x="174" y="152" type="curve" smooth="yes"/>
			<point x="270" y="152"/>
			<point x="348" y="230"/>
		</contour>
		<contour>
			<point x="349" y="417" type="curve" smooth="yes"/>
			<point x="296" y="417"/>
			<point x="253" y="339"/>
			<point x="253" y="244" type="curve" smooth="yes"/>
			<point x="253" y="148"/>
			<point x="296" y="70"/>
			<point x="349" y="70" type="curve" smooth="yes"/>
			<point x="402" y="70"/>
			<point x="445" y="148"/>
			<point x="445" y="243" type="curve" smooth="yes"/>
			<point x="445" y="339"/>
			<point x="402" y="417"/>
		</contour>
	</outline>
</glyph>
<glyph name="E" format="2">
	<unicode hex="0045"/>
	<outline>
		<contour>
			<point x="0" y="0" type="line"/>
			<point x="0" y="490" type="line"/>
			<point x="100" y="490" type="line"/>
			<point x="100" y="100" type="line"/>
			<point x="290" y="100" type="line"/>
			<point x="290" y="0" type="line"/>
		</contour>
		<contour>
			<point x="100" y="0" type="move"/>
			<point x="100" y="60" type="line"/>
		</contour>
		<contour>
			<point x="200" y="0" type="move"/>
			<point x="200" y="40" type="line"/>
		</contour>
		<contour>
			<point x="0" y="100" type="move"/>
			<point x="59" y="100" type="line"/>
		</contour>
		<contour>
			<point x="0" y="200" type="move"/>
			<point x="39" y="200" type="line"/>
		</contour>
		<contour>
			<point x="0" y="300" type="move"/>
			<point x="59" y="300" type="line"/>
		</contour>
		<contour>
			<point x="0" y="400" type="move"/>
			<point x="39" y="400" type="line"/>
		</contour>
	</outline>
</glyph>
<glyph name="F" format="2">
	<unicode hex="0046"/>
	<outline>
		<contour>
			<point x="140" y="0" type="line"/>
			<point x="318" y="-1" type="line"/>
			<point x="320" y="80" type="line"/>
			<point x="365" y="180" type="line"/>
			<point x="388" y="300" type="line"/>
			<point x="389" y="410" type="line"/>
			<point x="379" y="420" type="line"/>
			<point x="355" y="420" type="line"/>
			<point x="345" y="410" type="line"/>
			<point x="339" y="335" type="line"/>
			<point x="319" y="275" type="line"/>
			<point x="318" y="275" type="line"/>
			<point x="322" y="370" type="line"/>
			<point x="318" y="470" type="line"/>
			<point x="308" y="480" type="line"/>
			<point x="280" y="480" type="line"/>
			<point x="270" y="470" type="line"/>
			<point x="270" y="390" type="line"/>
			<point x="255" y="290" type="line"/>
			<point x="254" y="290" type="line"/>
			<point x="243" y="485" type="line"/>
			<point x="228" y="500" type="line"/>
			<point x="204" y="500" type="line"/>
			<point x="189" y="485" type="line"/>
			<point x="190" y="285" type="line"/>
			<point x="189" y="285" type="line"/>
			<point x="168" y="450" type="line"/>
			<point x="158" y="460" type="line"/>
			<point x="127" y="460" type="line"/>
			<point x="117" y="450" type="line"/>
			<point x="125" y="280" type="line"/>
			<point x="120" y="225" type="line"/>
			<point x="110" y="215" type="line"/>
			<point x="77" y="248" type="line"/>
			<point x="54" y="302" type="line"/>
			<point x="34" y="312" type="line"/>
			<point x="0" y="305" type="line"/>
			<point x="30" y="170" type="line"/>
			<point x="140" y="60" type="line"/>
		</contour>
	</outline>
</glyph>
<glyph name="G" format="2">
	<unicode hex="0047"/>
	<advance width="220"/>
	<outline>
		<contour>
			<point x="40" y="0" type="line"/>
			<point x="180" y="0" type="line"/>
			<point x="180" y="50" type="line"/>
			<point x="40" y="50" type="line"/>
		</contour>
		<contour>
			<point x="40" y="50" type="curve" smooth="yes"/>
			<point x="180" y="50" type="line" smooth="yes"/>
			<point x="195" y="50"/>
			<point x="210" y="55"/>
			<point x="210" y="75" type="curve" smooth="yes"/>
			<point x="210" y="95"/>
			<point x="195" y="100"/>
			<point x="180" y="100" type="curve" smooth="yes"/>
			<point x="40" y="100" type="line" smooth="yes"/>
			<point x="25" y="100"/>
			<point x="10" y="95"/>
			<point x="10" y="75" type="curve" smooth="yes"/>
			<point x="10" y="55"/>
			<point x="25" y="50"/>
		</contour>
		<contour>
			<point x="40" y="100" type="line"/>
			<point x="180" y="100" type="line"/>
			<point x="180" y="130" type="line"/>
			<point x="220" y="210" type="line"/>
			<point x="180" y="280"/>
			<point x="160" y="370"/>
			<point x="150" y="500" type="curve"/>
			<point x="70" y="500" type="line"/>
			<point x="60" y="370"/>
			<point x="40" y="280"/>
			<point x="0" y="210" type="curve"/>
			<point x="40" y="130" type="line"/>
		</contour>
		<contour>
			<point x="110" y="500" type="move"/>
			<point x="110" y="234" type="line"/>
		</contour>
		<contour>
			<point x="143" y="200" type="curve" smooth="yes"/>
			<point x="143" y="217"/>
			<point x="129" y="233"/>
			<point x="110" y="233" type="curve" smooth="yes"/>
			<point x="91" y="233"/>
			<point x="77" y="217"/>
			<point x="77" y="200" type="curve" smooth="yes"/>
			<point x="77" y="183"/>
			<point x="91" y="167"/>
			<point x="110" y="167" type="curve" smooth="yes"/>
			<point x="129" y="167"/>
			<point x="143" y="183"/>
		</contour>
	</outline>
</glyph>
<glyph name="H" format="2">
	<unicode hex="0048"/>
	<outline>
		<contour>
			<point x="40" y="0" type="line"/>
			<point x="180" y="0" type="line"/>
			<point x="180" y="50" type="line"/>
			<point x="40" y="50" type="line"/>
		</contour>
		<contour>
			<point x="40" y="50" type="curve" smooth="yes"/>
			<point x="180" y="50" type="line" smooth="yes"/>
			<point x="195" y="50"/>
			<point x="210" y="55"/>
			<point x="210" y="75" type="curve" smooth="yes"/>
			<point x="210" y="95"/>
			<point x="195" y="100"/>
			<point x="180" y="100" type="curve" smooth="yes"/>
			<point x="40" y="100" type="line" smooth="yes"/>
			<point x="25" y="100"/>
			<point x="10" y="95"/>
			<point x="10" y="75" type="curve" smooth="yes"/>
			<point x="10" y="55"/>
			<point x="25" y="50"/>
		</contour>
		<contour>
			<point x="40" y="100" type="line"/>
			<point x="180" y="100" type="line"/>
			<point x="180" y="130" type="line"/>
			<point x="220" y="210" type="line"/>
			<point x="180" y="280"/>
			<point x="160" y="334"/>
			<point x="150" y="434" type="curve"/>
			<point x="70" y="434" type="line"/>
			<point x="60" y="334"/>
			<point x="40" y="280"/>
			<point x="0" y="210" type="curve"/>
			<point x="40" y="130" type="line"/>
		</contour>
		<contour>
			<point x="143" y="467" type="curve" smooth="yes"/>
			<point x="143" y="484"/>
			<point x="129" y="500"/>
			<point x="110" y="500" type="curve" smooth="yes"/>
			<point x="91" y="500"/>
			<point x="77" y="484"/>
			<point x="77" y="467" type="curve" smooth="yes"/>
			<point x="77" y="450"/>
			<point x="91" y="434"/>
			<point x="110" y="434" type="curve" smooth="yes"/>
			<point x="129" y="434"/>
			<point x="143" y="450"/>
		</contour>
		<contour>
			<point x="143" y="467" type="move"/>
			<point x="243" y="467" type="line" smooth="yes"/>
		</contour>
		<contour>
			<point x="-23" y="467" type="move"/>
			<point x="77" y="467" type="line"/>
		</contour>
		<contour>
			<point x="-63" y="506" type="move"/>
			<point x="17" y="427" type="line"/>
		</contour>
		<contour>
			<point x="17" y="507" type="move"/>
			<point x="-63" y="427" type="line"/>
		</contour>
		<contour>
			<point x="75" y="215" type="move"/>
			<point x="145" y="215" type="line"/>
		</contour>
		<contour>
			<point x="75" y="153" type="move"/>
			<point x="75" y="268" type="line"/>
		</contour>
		<contour>
			<point x="145" y="153" type="move"/>
			<point x="145" y="268" type="line"/>
		</contour>
		<contour>
			<point x="203" y="506" type="move"/>
			<point x="283" y="427" type="line"/>
		</contour>
		<contour>
			<point x="283" y="507" type="move"/>
			<point x="203" y="427" type="line"/>
		</contour>
	</outline>
</glyph>
<glyph name="I" format="2">
	<unicode hex="0049"/>
	<outline>
		<contour>
			<point x="307" y="17" type="line"/>
			<point x="249" y="160" type="line"/>
			<point x="160" y="87" type="line"/>
			<point x="160" y="525" type="line"/>
			<point x="429" y="206" type="line"/>
			<point x="311" y="187" type="line"/>
			<point x="377" y="50" type="line"/>
		</contour>
	</outline>
</glyph>
<glyph name="J" format="2">
	<unicode hex="004A"/>
	<advance width="320"/>
	<outline>
		<contour>
			<point x="110" y="0" type="line"/>
			<point x="110" y="120" type="line"/>
			<point x="2" y="90" type="line"/>
			<point x="0" y="90" type="line"/>
			<point x="159" y="500" type="line"/>
			<point x="161" y="500" type="line"/>
			<point x="320" y="90" type="line"/>
			<point x="318" y="90" type="line"/>
			<point x="210" y="120" type="line"/>
			<point x="210" y="0" type="line"/>
		</contour>
	</outline>
</glyph>
<glyph name="K" format="2">
	<unicode hex="004B"/>
	<advance width="280"/>
	<outline>
		<contour>
			<point x="40" y="0" type="line"/>
			<point x="240" y="0" type="line"/>
			<point x="240" y="90" type="line"/>
			<point x="40" y="90" type="line"/>
		</contour>
		<contour>
			<point x="40" y="90" type="line"/>
			<point x="240" y="90" type="line"/>
			<point x="239" y="130" type="line"/>
			<point x="280" y="210" type="line"/>
			<point x="240" y="280"/>
			<point x="205" y="370"/>
			<point x="195" y="500" type="curve"/>
			<point x="85" y="500" type="line"/>
			<point x="75" y="370"/>
			<point x="40" y="280"/>
			<point x="0" y="210" type="curve"/>
			<point x="40" y="130" type="line"/>
		</contour>
		<contour>
			<point x="140" y="500" type="move"/>
			<point x="140" y="234" type="line"/>
		</contour>
		<contour>
			<point x="173" y="200" type="curve" smooth="yes"/>
			<point x="173" y="217"/>
			<point x="159" y="233"/>
			<point x="140" y="233" type="curve" smooth="yes"/>
			<point x="121" y="233"/>
			<point x="107" y="217"/>
			<point x="107" y="200" type="curve" smooth="yes"/>
			<point x="107" y="183"/>
			<point x="121" y="167"/>
			<point x="140" y="167" type="curve" smooth="yes"/>
			<point x="159" y="167"/>
			<point x="173" y="183"/>
		</contour>
	</outline>
</glyph>
<glyph name="L" format="2">
	<unicode hex="004C"/>
	<advance width="280"/>
	<outline>
		<contour>
			<point x="40" y="0" type="line"/>
			<point x="240" y="0" type="line"/>
			<point x="240" y="180" type="line"/>
			<point x="40" y="180" type="line"/>
		</contour>
		<contour>
			<point x="40" y="180" type="curve"/>
			<point x="240" y="180" type="line"/>
			<point x="260" y="200"/>
			<point x="280" y="220"/>
			<point x="280" y="260" type="curve" smooth="yes"/>
			<point x="280" y="310"/>
			<point x="210" y="370"/>
			<point x="210" y="410" type="curve" smooth="yes"/>
			<point x="210" y="470"/>
			<point x="180" y="500"/>
			<point x="140" y="500" type="curve" smooth="yes"/>
			<point x="100" y="500"/>
			<point x="70" y="470"/>
			<point x="70" y="410" type="curve" smooth="yes"/>
			<point x="70" y="370"/>
			<point x="0" y="310"/>
			<point x="0" y="260" type="curve" smooth="yes"/>
			<point x="0" y="220"/>
			<point x="20" y="200"/>
		</contour>
		<contour>
			<point x="100" y="30" type="move"/>
			<point x="100" y="150" type="line"/>
		</contour>
		<contour>
			<point x="100" y="95" type="move"/>
			<point x="180" y="95" type="line"/>
		</contour>
		<contour>
			<point x="180" y="30" type="move"/>
			<point x="180" y="150" type="line"/>
		</contour>
	</outline>
</glyph>
<glyph name="M" format="2">
	<unicode hex="004D"/>
	<advance width="220"/>
	<outline>
		<contour>
			<point x="30" y="0" type="line"/>
			<point x="190" y="0" type="line"/>
			<point x="190" y="90" type="line"/>
			<point x="30" y="90" type="line"/>
		</contour>
		<contour>
			<point x="40" y="140" type="line"/>
			<point x="180" y="140" type="line"/>
			<point x="180" y="170" type="line"/>
			<point x="220" y="210" type="line"/>
			<point x="42" y="500" type="line"/>
			<point x="40" y="500" type="line"/>
		</contour>
		<contour>
			<point x="30" y="90" type="curve" smooth="yes"/>
			<point x="190" y="90" type="line" smooth="yes"/>
			<point x="205" y="90"/>
			<point x="220" y="95"/>
			<point x="220" y="115" type="curve" smooth="yes"/>
			<point x="220" y="135"/>
			<point x="205" y="140"/>
			<point x="190" y="140" type="curve" smooth="yes"/>
			<point x="30" y="140" type="line" smooth="yes"/>
			<point x="15" y="140"/>
			<point x="0" y="135"/>
			<point x="0" y="115" type="curve" smooth="yes"/>
			<point x="0" y="95"/>
			<point x="15" y="90"/>
		</contour>
	</outline>
</glyph>
<glyph name="N" format="2">
	<unicode hex="004E"/>
	<advance width="360"/>
	<outline>
		<contour>
			<point x="130" y="0" type="line"/>
			<point x="310" y="0" type="line"/>
			<point x="310" y="90" type="line"/>
			<point x="336" y="125"/>
			<point x="360" y="149"/>
			<point x="360" y="190" type="curve" smooth="yes"/>
			<point x="360" y="369" type="line" smooth="yes"/>
			<point x="360" y="411"/>
			<point x="352" y="430"/>
			<point x="336" y="430" type="curve" smooth="yes"/>
			<point x="316" y="430"/>
			<point x="310" y="415"/>
			<point x="310" y="399" type="curve"/>
			<point x="310" y="440"/>
			<point x="309" y="480"/>
			<point x="280" y="480" type="curve" smooth="yes"/>
			<point x="260" y="480"/>
			<point x="250" y="464"/>
			<point x="250" y="440" type="curve"/>
			<point x="250" y="474"/>
			<point x="242" y="500"/>
			<point x="216" y="500" type="curve" smooth="yes"/>
			<point x="192" y="500"/>
			<point x="180" y="484"/>
			<point x="180" y="425" type="curve"/>
			<point x="180" y="452"/>
			<point x="169" y="470"/>
			<point x="150" y="470" type="curve" smooth="yes"/>
			<point x="130" y="470"/>
			<point x="120" y="447"/>
			<point x="120" y="425" type="curve" smooth="yes"/>
			<point x="120" y="250" type="line" smooth="yes"/>
			<point x="120" y="230"/>
			<point x="110" y="230"/>
			<point x="100" y="230" type="curve" smooth="yes"/>
			<point x="85" y="230"/>
			<point x="77" y="236"/>
			<point x="70" y="250" type="curve" smooth="yes"/>
			<point x="45" y="301"/>
			<point x="32" y="310"/>
			<point x="20" y="310" type="curve" smooth="yes"/>
			<point x="8" y="310"/>
			<point x="0" y="303"/>
			<point x="0" y="290" type="curve" smooth="yes"/>
			<point x="0" y="266"/>
			<point x="19" y="187"/>
			<point x="30" y="170" type="curve" smooth="yes"/>
			<point x="41" y="153"/>
			<point x="87" y="117"/>
			<point x="130" y="90" type="curve"/>
		</contour>
		<contour>
			<point x="130" y="90" type="move"/>
			<point x="310" y="90" type="line"/>
		</contour>
		<contour>
			<point x="180" y="425" type="move"/>
			<point x="180" y="290" type="line"/>
		</contour>
		<contour>
			<point x="250" y="440" type="move"/>
			<point x="250" y="290" type="line"/>
		</contour>
		<contour>
			<point x="310" y="399" type="move"/>
			<point x="310" y="280" type="line"/>
		</contour>
	</outline>
</glyph>
<glyph name="O" format="2">
	<unicode hex="004F"/>
	<advance width="330"/>
	<outline>
		<contour>
			<point x="0" y="0" type="line"/>
			<point x="140" y="0" type="line"/>
			<point x="140" y="500" type="line"/>
			<point x="0" y="500" type="line"/>
		</contour>
		<contour>
			<point x="190" y="500" type="move"/>
			<point x="330" y="500" type="line"/>
		</contour>
		<contour>
			<point x="190" y="0" type="move"/>
			<point x="330" y="0" type="line"/>
		</contour>
		<contour>
			<point x="210" y="400" type="line"/>
			<point x="310" y="400" type="line"/>
			<point x="260" y="490" type="line"/>
		</contour>
		<contour>
			<point x="210" y="100" type="line"/>
			<point x="310" y="100" type="line"/>
			<point x="260" y="10" type="line"/>
		</contour>
		<contour>
			<point x="260" y="400" type="move"/>
			<point x="260" y="100" type="line"/>
		</contour>
		<contour>
			<point x="70" y="150" type="move"/>
			<point x="140" y="150" type="line"/>
		</contour>
		<contour>
			<point x="100" y="100" type="move"/>
			<point x="140" y="100" type="line"/>
		</contour>
		<contour>
			<point x="50" y="50" type="move"/>
			<point x="140" y="50" type="line"/>
		</contour>
		<contour>
			<point x="100" y="200" type="move"/>
			<point x="140" y="200" type="line"/>
		</contour>
		<contour>
			<point x="50" y="250" type="move"/>
			<point x="140" y="250" type="line"/>
		</contour>
		<contour>
			<point x="70" y="350" type="move"/>
			<point x="140" y="350" type="line"/>
		</contour>
		<contour>
			<point x="100" y="300" type="move"/>
			<point x="140" y="300" type="line"/>
		</contour>
		<contour>
			<point x="100" y="400" type="move"/>
			<point x="140" y="400" type="line"/>
		</contour>
		<contour>
			<point x="50" y="450" type="move"/>
			<point x="140" y="450" type="line"/>
		</contour>
	</outline>
</glyph>
<glyph name="P" format="2">
	<unicode hex="0050"/>
	<advance width="220"/>
	<outline>
		<contour>
			<point x="0" y="0" type="line"/>
			<point x="220" y="0" type="line"/>
			<point x="220" y="500" type="line"/>
			<point x="0" y="500" type="line"/>
		</contour>
	</outline>
</glyph>
<glyph name="Q" format="2">
	<unicode hex="0051"/>
	<advance width="220"/>
	<outline>
		<contour>
			<point x="110" y="490" type="curve" smooth="yes"/>
			<point x="50" y="490"/>
			<point x="0" y="390"/>
			<point x="0" y="250" type="curve" smooth="yes"/>
			<point x="0" y="110"/>
			<point x="50" y="10"/>
			<point x="110" y="10" type="curve" smooth="yes"/>
			<point x="170" y="10"/>
			<point x="220" y="110"/>
			<point x="220" y="250" type="curve" smooth="yes"/>
			<point x="220" y="390"/>
			<point x="170" y="490"/>
		</contour>
	</outline>
</glyph>
<glyph name="R" format="2">
	<unicode hex="0052"/>
	<advance width="300"/>
	<outline>
		<contour>
			<point x="82" y="0" type="line"/>
			<point x="206" y="0" type="line"/>
			<point x="206" y="80" type="line"/>
			<point x="82" y="80" type="line"/>
		</contour>
		<contour>
			<point x="82" y="105" type="line"/>
			<point x="206" y="105" type="line"/>
			<point x="206" y="165" type="line" smooth="yes"/>
			<point x="206" y="175"/>
			<point x="208" y="184"/>
			<point x="217" y="196" type="curve" smooth="yes"/>
			<point x="273" y="265" type="line" smooth="yes"/>
			<point x="282" y="277"/>
			<point x="290" y="291"/>
			<point x="290" y="314" type="curve" smooth="yes"/>
			<point x="290" y="406" type="line" smooth="yes"/>
			<point x="290" y="473"/>
			<point x="250" y="505"/>
			<point x="148" y="505" type="curve" smooth="yes"/>
			<point x="53" y="505"/>
			<point x="11" y="473"/>
			<point x="10" y="406" type="curve" smooth="yes"/>
			<point x="10" y="317" type="line"/>
			<point x="135" y="317" type="line"/>
			<point x="135" y="395" type="line" smooth="yes"/>
			<point x="135" y="410"/>
			<point x="139" y="416"/>
			<point x="150" y="416" type="curve" smooth="yes"/>
			<point x="161" y="416"/>
			<point x="165" y="410"/>
			<point x="165" y="395" type="curve" smooth="yes"/>
			<point x="165" y="317" type="line" smooth="yes"/>
			<point x="165" y="301"/>
			<point x="160" y="294"/>
			<point x="153" y="286" type="curve" smooth="yes"/>
			<point x="95" y="218" type="line" smooth="yes"/>
			<point x="86" y="206"/>
			<point x="82" y="195"/>
			<point x="82" y="180" type="curve" smooth="yes"/>
		</contour>
	</outline>
</glyph>
<glyph name="S" format="2">
	<unicode hex="0053"/>
	<outline>
		<contour>
			<point x="244" y="210" type="line"/>
			<point x="214" y="236" type="line"/>
			<point x="219" y="272" type="line"/>
			<point x="258" y="287" type="line"/>
			<point x="299" y="255" type="line"/>
			<point x="308" y="205" type="line"/>
			<point x="295" y="158" type="line"/>
			<point x="243" y="132" type="line"/>
			<point x="176" y="151" type="line"/>
			<point x="137" y="190" type="line"/>
			<point x="121" y="274" type="line"/>
			<point x="153" y="338" type="line"/>
			<point x="238" y="376" type="line"/>
			<point x="319" y="353" type="line"/>
			<point x="376" y="256" type="line"/>
			<point x="399" y="158" type="line"/>
			<point x="348" y="82" type="line"/>
			<point x="316" y="84" type="line"/>
			<point x="317" y="57" type="line"/>
			<point x="340" y="22" type="line"/>
			<point x="381" y="24" type="line"/>
			<point x="432" y="112" type="line"/>
			<point x="452" y="190" type="line"/>
			<point x="409" y="360" type="line"/>
			<point x="240" y="442" type="line"/>
			<point x="85" y="386" type="line"/>
			<point x="48" y="277" type="line"/>
			<point x="77" y="145" type="line"/>
			<point x="145" y="93" type="line"/>
			<point x="230" y="73" type="line"/>
			<point x="305" y="116" type="line"/>
			<point x="340" y="156" type="line"/>
			<point x="335" y="268" type="line"/>
			<point x="305" y="299" type="line"/>
			<point x="263" y="329" type="line"/>
			<point x="183" y="319" type="line"/>
			<point x="165" y="235" type="line"/>
			<point x="200" y="179" type="line"/>
			<point x="238" y="180" type="line"/>
		</contour>
	</outline>
</glyph>
<glyph name="T" format="2">
	<advance width="448"/>
	<unicode hex="0054"/>
	<outline>
		<contour>
			<point x="323" y="-10" type="curve" smooth="yes"/>
			<point x="399" y="-10"/>
			<point x="458" y="48"/>
			<point x="458" y="125" type="curve" smooth="yes"/>
			<point x="458" y="200"/>
			<point x="406" y="252"/>
			<point x="334" y="263" type="curve" smooth="yes"/>
			<point x="286" y="270"/>
			<point x="260" y="308"/>
			<point x="260" y="382" type="curve" smooth="yes"/>
			<point x="260" y="446"/>
			<point x="207" y="510"/>
			<point x="127" y="510" type="curve" smooth="yes"/>
			<point x="49" y="510"/>
			<point x="-10" y="452"/>
			<point x="-10" y="382" type="curve" smooth="yes"/>
			<point x="-10" y="304"/>
			<point x="38" y="258"/>
			<point x="88" y="244" type="curve" smooth="yes"/>
			<point x="156" y="225"/>
			<point x="177" y="211"/>
			<point x="188" y="109" type="curve" smooth="yes"/>
			<point x="193" y="63"/>
			<point x="230" y="-10"/>
		</contour>
		<contour>
			<point x="323" y="57" type="curve" smooth="yes"/>
			<point x="286" y="57"/>
			<point x="255" y="88"/>
			<point x="255" y="125" type="curve" smooth="yes"/>
			<point x="255" y="163"/>
			<point x="286" y="193"/>
			<point x="323" y="193" type="curve" smooth="yes"/>
			<point x="360" y="193"/>
			<point x="391" y="163"/>
			<point x="391" y="125" type="curve" smooth="yes"/>
			<point x="391" y="88"/>
			<point x="360" y="57"/>
		</contour>
		<contour>
			<point x="323" y="109" type="curve" smooth="yes"/>
			<point x="332" y="109"/>
			<point x="339" y="117"/>
			<point x="339" y="125" type="curve" smooth="yes"/>
			<point x="339" y="134"/>
			<point x="332" y="141"/>
			<point x="323" y="141" type="curve" smooth="yes"/>
			<point x="314" y="141"/>
			<point x="307" y="134"/>
			<point x="307" y="125" type="curve" smooth="yes"/>
			<point x="307" y="117"/>
			<point x="314" y="109"/>
		</contour>
		<contour>
			<point x="127" y="366" type="curve" smooth="yes"/>
			<point x="136" y="366"/>
			<point x="143" y="374"/>
			<point x="143" y="382" type="curve" smooth="yes"/>
			<point x="143" y="391"/>
			<point x="136" y="398"/>
			<point x="127" y="398" type="curve" smooth="yes"/>
			<point x="118" y="398"/>
			<point x="111" y="391"/>
			<point x="111" y="382" type="curve" smooth="yes"/>
			<point x="111" y="374"/>
			<point x="118" y="366"/>
		</contour>
		<contour>
			<point x="127" y="314" type="curve" smooth="yes"/>
			<point x="90" y="314"/>
			<point x="59" y="345"/>
			<point x="59" y="382" type="curve" smooth="yes"/>
			<point x="59" y="420"/>
			<point x="90" y="450"/>
			<point x="127" y="450" type="curve" smooth="yes"/>
			<point x="164" y="450"/>
			<point x="195" y="420"/>
			<point x="195" y="382" type="curve" smooth="yes"/>
			<point x="195" y="345"/>
			<point x="164" y="314"/>
		</contour>
	</outline>
</glyph>
<glyph name="a" format="2">
	<unicode hex="0061"/>
	<advance width="500"/>
	<outline>
		<contour>
			<point x="272" y="17" type="line"/>
			<point x="260" y="24" type="line"/>
			<point x="237" y="94" type="line"/>
			<point x="209" y="159" type="line"/>
			<point x="202" y="153" type="line"/>
			<point x="138" y="101" type="line"/>
			<point x="127" y="106" type="line"/>
			<point x="130" y="304" type="line"/>
			<point x="128" y="495" type="line"/>
			<point x="142" y="500" type="line"/>
			<point x="262" y="340" type="line"/>
			<point x="372" y="210" type="line"/>
			<point x="367" y="194" type="line"/>
			<point x="276" y="190" type="line"/>
			<point x="271" y="186" type="line"/>
			<point x="304" y="118" type="line"/>
			<point x="336" y="58" type="line"/>
			<point x="330" y="44" type="line"/>
		</contour>
	</outline>
</glyph>
